<svg width="33" height="33" viewBox="0 0 33 33" fill="none" xmlns="http://www.w3.org/2000/svg">
<path fill-rule="evenodd" clip-rule="evenodd" d="M29.8333 19.7344C30.3856 19.7344 30.8333 20.1821 30.8333 20.7344C30.8333 26.4467 26.2123 31.0677 20.5 31.0677C20.1397 31.0677 19.8073 30.8739 19.6298 30.5604C19.4523 30.2469 19.4571 29.8621 19.6425 29.5532L21.0425 27.2199C21.3266 26.7463 21.9409 26.5927 22.4145 26.8769C22.8881 27.161 23.0416 27.7753 22.7575 28.2489L22.3957 28.8518C26.0879 27.9952 28.8333 24.6898 28.8333 20.7344C28.8333 20.1821 29.281 19.7344 29.8333 19.7344Z" fill="#F4B0B1" fill-opacity="0.5"/>
<path fill-rule="evenodd" clip-rule="evenodd" d="M10.6036 4.61691C6.91149 5.47349 4.16602 8.77889 4.16602 12.7343C4.16602 13.2866 3.7183 13.7343 3.16602 13.7343C2.61373 13.7343 2.16602 13.2866 2.16602 12.7343C2.16602 7.02205 6.78706 2.401 12.4993 2.401C12.8596 2.401 13.192 2.59479 13.3695 2.9083C13.5471 3.22181 13.5422 3.60656 13.3568 3.91549L11.9569 6.24883C11.6727 6.72241 11.0585 6.87598 10.5849 6.59183C10.1113 6.30768 9.95772 5.69342 10.2419 5.21984L10.6036 4.61691Z" fill="#F4B0B1" fill-opacity="0.5"/>
<path d="M16.4993 21.6677V22.481H3.16602V21.6677C3.16602 19.321 3.75268 18.7344 6.12602 18.7344H13.5393C15.9127 18.7344 16.4993 19.321 16.4993 21.6677Z" fill="#F4B0B1" fill-opacity="0.5"/>
<path d="M3.16602 22.4811V24.4811V27.1344C3.16602 29.4811 3.75268 30.0677 6.12602 30.0677H13.5393C15.9127 30.0677 16.4993 29.4811 16.4993 27.1344V24.4811V22.4811H3.16602Z" fill="#007DE8"/>
<path d="M29.8333 6.33433V7.14767H16.5V6.33433C16.5 3.98767 17.0867 3.401 19.46 3.401H26.8733C29.2467 3.401 29.8333 3.98767 29.8333 6.33433Z" fill="#F4B0B1" fill-opacity="0.5"/>
<path d="M16.5 7.14771V9.1477V11.801C16.5 14.1477 17.0867 14.7344 19.46 14.7344H26.8733C29.2467 14.7344 29.8333 14.1477 29.8333 11.801V9.1477V7.14771H16.5Z" fill="#007DE8"/>
</svg>
