<svg width="32" height="33" viewBox="0 0 32 33" fill="none" xmlns="http://www.w3.org/2000/svg">
<circle cx="16" cy="16.7334" r="15.5" stroke="white"/>
<path d="M18.2 7.6084C16.9734 7.6084 15.797 8.09567 14.9296 8.96303C14.0623 9.83039 13.575 11.0068 13.575 12.2334V14.8084H11.1C10.9757 14.8084 10.875 14.9091 10.875 15.0334V18.4334C10.875 18.5577 10.9757 18.6584 11.1 18.6584H13.575V25.6334C13.575 25.7577 13.6757 25.8584 13.8 25.8584H17.2C17.3243 25.8584 17.425 25.7577 17.425 25.6334V18.6584H19.9219C20.0252 18.6584 20.1152 18.5881 20.1402 18.488L20.9902 15.088C21.0257 14.946 20.9183 14.8084 20.7719 14.8084H17.425V12.2334C17.425 12.0279 17.5067 11.8307 17.652 11.6854C17.7973 11.5401 17.9945 11.4584 18.2 11.4584H20.8C20.9243 11.4584 21.025 11.3577 21.025 11.2334V7.8334C21.025 7.70913 20.9243 7.6084 20.8 7.6084H18.2Z" fill="white"/>
</svg>
