<svg width="32" height="33" viewBox="0 0 32 33" fill="none" xmlns="http://www.w3.org/2000/svg">
<circle cx="16" cy="16.7334" r="15.5" stroke="white"/>
<path d="M16.0007 13.4834C14.2057 13.4834 12.7507 14.9385 12.7507 16.7334C12.7507 18.5284 14.2057 19.9834 16.0007 19.9834C17.7956 19.9834 19.2507 18.5284 19.2507 16.7334C19.2507 14.9385 17.7956 13.4834 16.0007 13.4834Z" fill="white"/>
<path fill-rule="evenodd" clip-rule="evenodd" d="M10.7702 7.81491C14.2183 7.42953 17.783 7.42953 21.2312 7.81491C23.1296 8.02709 24.6607 9.52286 24.8836 11.4279C25.2958 14.9529 25.2958 18.514 24.8836 22.039C24.6607 23.944 23.1296 25.4398 21.2312 25.652C17.783 26.0374 14.2183 26.0374 10.7702 25.652C8.87181 25.4398 7.34062 23.944 7.1178 22.039C6.70552 18.514 6.70552 14.9529 7.1178 11.4279C7.34062 9.52286 8.87181 8.02709 10.7702 7.81491ZM21.0007 10.7334C20.4484 10.7334 20.0007 11.1812 20.0007 11.7334C20.0007 12.2857 20.4484 12.7334 21.0007 12.7334C21.553 12.7334 22.0007 12.2857 22.0007 11.7334C22.0007 11.1812 21.553 10.7334 21.0007 10.7334ZM11.2507 16.7334C11.2507 14.1101 13.3773 11.9834 16.0007 11.9834C18.624 11.9834 20.7507 14.1101 20.7507 16.7334C20.7507 19.3568 18.624 21.4834 16.0007 21.4834C13.3773 21.4834 11.2507 19.3568 11.2507 16.7334Z" fill="white"/>
</svg>
