<svg width="33" height="33" viewBox="0 0 33 33" fill="none" xmlns="http://www.w3.org/2000/svg">
<path d="M26.2326 11.2944V18.1611C26.2326 22.2677 23.886 24.0277 20.366 24.0277H8.64595C8.04595 24.0277 7.47262 23.9744 6.93929 23.8544C6.60596 23.8011 6.28597 23.7077 5.99263 23.6011C3.99263 22.8544 2.7793 21.1211 2.7793 18.1611V11.2944C2.7793 7.18769 5.12595 5.42773 8.64595 5.42773H20.366C23.3526 5.42773 25.4993 6.69439 26.0726 9.58773C26.166 10.1211 26.2326 10.6677 26.2326 11.2944Z" fill="#F4B0B1" fill-opacity="0.5"/>
<path d="M30.2328 15.2944V22.1611C30.2328 26.2678 27.8861 28.0277 24.3661 28.0277H12.6461C11.6595 28.0277 10.7661 27.8944 9.9928 27.6011C8.40613 27.0144 7.32612 25.8011 6.93945 23.8545C7.47279 23.9745 8.04612 24.0277 8.64612 24.0277H20.3661C23.8861 24.0277 26.2328 22.2678 26.2328 18.1611V11.2944C26.2328 10.6677 26.1795 10.1078 26.0728 9.58777C28.6061 10.1211 30.2328 11.9077 30.2328 15.2944Z" fill="#007DE8"/>
<path d="M14.5005 18.2544C16.4445 18.2544 18.0205 16.6784 18.0205 14.7344C18.0205 12.7903 16.4445 11.2144 14.5005 11.2144C12.5564 11.2144 10.9805 12.7903 10.9805 14.7344C10.9805 16.6784 12.5564 18.2544 14.5005 18.2544Z" fill="#007DE8"/>
<path d="M6.87305 11.7344C6.32638 11.7344 5.87305 12.1877 5.87305 12.7344V16.7344C5.87305 17.281 6.32638 17.7344 6.87305 17.7344C7.41971 17.7344 7.87305 17.281 7.87305 16.7344V12.7344C7.87305 12.1877 7.43305 11.7344 6.87305 11.7344Z" fill="#007DE8"/>
<path d="M22.1133 11.7344C21.5666 11.7344 21.1133 12.1877 21.1133 12.7344V16.7344C21.1133 17.281 21.5666 17.7344 22.1133 17.7344C22.6599 17.7344 23.1133 17.281 23.1133 16.7344V12.7344C23.1133 12.1877 22.6733 11.7344 22.1133 11.7344Z" fill="#007DE8"/>
</svg>
