<svg width="33" height="33" viewBox="0 0 33 33" fill="none" xmlns="http://www.w3.org/2000/svg">
<path d="M15.1124 3.48107L7.77909 6.22773C6.37909 6.76107 5.23242 8.4144 5.23242 9.92107V20.7211C5.23242 21.8011 5.93909 23.2277 6.80576 23.8677L14.1391 29.3477C15.4324 30.3211 17.5524 30.3211 18.8458 29.3477L26.1791 23.8677C27.0458 23.2144 27.7524 21.8011 27.7524 20.7211V9.92107C27.7524 8.42773 26.6058 6.76107 25.2058 6.24107L17.8724 3.4944C17.1258 3.20107 15.8724 3.20107 15.1124 3.48107Z" fill="#F4B0B1" fill-opacity="0.5"/>
<path d="M14.7136 19.7077C14.4603 19.7077 14.207 19.6143 14.007 19.4143L11.8603 17.2677C11.4736 16.881 11.4736 16.241 11.8603 15.8543C12.247 15.4677 12.887 15.4677 13.2736 15.8543L14.7136 17.2943L19.7403 12.2677C20.127 11.881 20.767 11.881 21.1536 12.2677C21.5403 12.6543 21.5403 13.2943 21.1536 13.681L15.4203 19.4143C15.2203 19.6143 14.967 19.7077 14.7136 19.7077Z" fill="#007DE8"/>
</svg>
