<svg width="32" height="33" viewBox="0 0 32 33" fill="none" xmlns="http://www.w3.org/2000/svg">
<circle cx="16" cy="16.7334" r="15.5" stroke="white"/>
<path d="M25.8088 10.9606C25.8667 10.8799 25.7812 10.7756 25.6885 10.8115C25.0297 11.0668 24.3413 11.2391 23.6391 11.324C24.421 10.8569 25.0243 10.1458 25.3589 9.30393C25.393 9.21817 25.2993 9.14159 25.2186 9.1862C24.4918 9.58754 23.7081 9.87653 22.8939 10.043C22.8599 10.0499 22.8247 10.0383 22.8008 10.0131C22.1898 9.36841 21.3856 8.93918 20.5089 8.79085C19.6137 8.63941 18.6936 8.78936 17.8928 9.21719C17.0921 9.64502 16.456 10.3265 16.0843 11.1548C15.7309 11.9424 15.6355 12.8203 15.8098 13.6634C15.8234 13.7289 15.7721 13.7906 15.7055 13.7865C14.1214 13.6881 12.5737 13.2668 11.1577 12.5479C9.74529 11.8308 8.49456 10.8332 7.48169 9.61669C7.43674 9.5627 7.35154 9.56969 7.31879 9.63184C7.00362 10.2299 6.8386 10.8965 6.83905 11.574C6.83777 12.2484 7.00327 12.9126 7.32081 13.5076C7.63834 14.1025 8.09807 14.6097 8.65905 14.984C8.06413 14.9678 7.4808 14.8207 6.9503 14.5541C6.88193 14.5197 6.79993 14.5686 6.80348 14.6451C6.84485 15.5343 7.1713 16.427 7.73637 17.112C8.33769 17.8408 9.17231 18.3396 10.0991 18.524C9.74231 18.6326 9.37193 18.6898 8.99905 18.694C8.79611 18.6916 8.59357 18.6767 8.39259 18.6492C8.31807 18.639 8.25722 18.7098 8.28331 18.7803C8.55972 19.5278 9.04805 20.18 9.69013 20.6562C10.3766 21.1652 11.2046 21.4475 12.0591 21.464C10.6163 22.5993 8.83493 23.2189 6.99905 23.224C6.81041 23.2246 6.62185 23.2185 6.43373 23.2057C6.32772 23.1985 6.27897 23.3397 6.37035 23.3939C8.15911 24.4555 10.2036 25.0165 12.2891 25.014C13.8287 25.03 15.3562 24.739 16.7822 24.1581C18.2081 23.5771 19.5041 22.7179 20.5943 21.6305C21.6844 20.5431 22.547 19.2494 23.1316 17.8249C23.7162 16.4004 24.0111 14.8737 23.9991 13.334V12.8542C23.9991 12.8226 24.014 12.7929 24.0392 12.7739C24.7175 12.2617 25.314 11.6503 25.8088 10.9606Z" fill="white"/>
</svg>
