<svg width="126" height="28" viewBox="0 0 126 28" fill="none" xmlns="http://www.w3.org/2000/svg">
<path d="M36.9453 21.2056V18.2378L43.3843 10.8723H37.1828V7.95848H47.633V10.8993L41.1676 18.2918H47.7913V21.2056H36.9453ZM54.2039 21.5024C53.2011 21.5024 52.3303 21.3405 51.565 21.0168C50.7733 20.693 50.14 20.2074 49.5858 19.6138C49.058 19.0202 48.6622 18.2918 48.3983 17.4554C48.108 16.592 47.976 15.6208 47.976 14.5686C47.976 13.5163 48.108 12.572 48.3719 11.7357C48.6358 10.8993 49.0316 10.1708 49.533 9.55029C50.0608 8.95674 50.6941 8.4711 51.4594 8.14734C52.1983 7.82358 53.0692 7.6617 54.0456 7.6617C55.1011 7.6617 56.0248 7.85056 56.7901 8.22828C57.5553 8.57902 58.1887 9.09164 58.6637 9.71217C59.1387 10.3327 59.5081 11.0342 59.7193 11.8706C59.9568 12.68 60.0623 13.5163 60.0623 14.4067V15.5398H51.7497V15.7287C51.7497 16.592 51.9872 17.2665 52.4358 17.7792C52.9108 18.2918 53.6233 18.5616 54.5997 18.5616C55.365 18.5616 55.972 18.3997 56.447 18.0759C56.9484 17.7792 57.3706 17.4014 57.7928 16.9698L59.6137 19.29C59.0331 19.9915 58.2942 20.5311 57.3706 20.9088C56.4206 21.3135 55.365 21.5024 54.2039 21.5024ZM54.1247 10.4137C53.3858 10.4137 52.8053 10.6565 52.383 11.1421C51.9608 11.6547 51.7497 12.3022 51.7497 13.1386V13.3275H56.2887V13.1116C56.2887 12.3022 56.1039 11.6547 55.7609 11.1421C55.3914 10.6565 54.8636 10.4137 54.1247 10.4137ZM69.2194 18.9663H69.0875C68.9819 19.344 68.8236 19.6678 68.6124 19.9645C68.4013 20.2883 68.1374 20.5581 67.8472 20.7739C67.5305 21.0168 67.1874 21.1786 66.818 21.3135C66.4221 21.4484 66.0263 21.5024 65.6041 21.5024C63.9679 21.5024 62.7276 20.9088 61.8832 19.7217C61.0651 18.5346 60.6429 16.8079 60.6429 14.5686C60.6429 12.3292 61.0651 10.6025 61.8832 9.44237C62.7276 8.25526 63.9679 7.6617 65.6041 7.6617C66.4485 7.6617 67.1874 7.90452 67.8472 8.36318C68.5069 8.84882 68.9027 9.44237 69.0875 10.1978H69.2194V2.5625H72.8611V21.2056H69.2194V18.9663ZM66.818 18.4806C67.5041 18.4806 68.0847 18.2918 68.5333 17.968C68.9819 17.6173 69.2194 17.1316 69.2194 16.5381V12.626C69.2194 12.0324 68.9819 11.5468 68.5333 11.1961C68.0847 10.8723 67.5041 10.6834 66.818 10.6834C66.1319 10.6834 65.5513 10.9263 65.1027 11.4389C64.6541 11.9245 64.4429 12.599 64.4429 13.4354V15.7287C64.4429 16.5651 64.6541 17.2396 65.1027 17.7252C65.5513 18.2378 66.1319 18.4806 66.818 18.4806ZM82.8363 18.9663H82.7043C82.5988 19.344 82.4404 19.6678 82.2293 19.9645C82.0182 20.2883 81.7543 20.5581 81.464 20.7739C81.1474 21.0168 80.8043 21.1786 80.4348 21.3135C80.039 21.4484 79.6432 21.5024 79.2209 21.5024C77.5848 21.5024 76.3445 20.9088 75.5 19.7217C74.682 18.5346 74.2598 16.8079 74.2598 14.5686C74.2598 12.3292 74.682 10.6025 75.5 9.44237C76.3445 8.25526 77.5848 7.6617 79.2209 7.6617C80.0654 7.6617 80.8043 7.90452 81.464 8.36318C82.1238 8.84882 82.5196 9.44237 82.7043 10.1978H82.8363V2.5625H86.478V21.2056H82.8363V18.9663ZM80.4348 18.4806C81.121 18.4806 81.7015 18.2918 82.1501 17.968C82.5988 17.6173 82.8363 17.1316 82.8363 16.5381V12.626C82.8363 12.0324 82.5988 11.5468 82.1501 11.1961C81.7015 10.8723 81.121 10.6834 80.4348 10.6834C79.7487 10.6834 79.1682 10.9263 78.7195 11.4389C78.2709 11.9245 78.0598 12.599 78.0598 13.4354V15.7287C78.0598 16.5651 78.2709 17.2396 78.7195 17.7252C79.1682 18.2378 79.7487 18.4806 80.4348 18.4806ZM88.51 7.95848H92.1517V10.1978H92.2836C92.4684 9.44237 92.8906 8.84882 93.5239 8.36318C94.1837 7.90452 94.9226 7.6617 95.767 7.6617C97.4031 7.6617 98.6434 8.25526 99.4879 9.44237C100.306 10.6025 100.728 12.3292 100.728 14.5686C100.728 16.8079 100.306 18.5346 99.4879 19.7217C98.6434 20.9088 97.4031 21.5024 95.767 21.5024C95.3184 21.5024 94.9226 21.4484 94.5531 21.3135C94.1837 21.1786 93.8406 21.0168 93.5239 20.7739C93.2336 20.5581 92.9697 20.2883 92.7586 19.9645C92.5475 19.6678 92.3892 19.344 92.2836 18.9663H92.1517V26.2239H88.51V7.95848ZM94.5531 18.4806C95.2392 18.4806 95.8198 18.2378 96.2684 17.7252C96.717 17.2396 96.9545 16.5651 96.9545 15.7287V13.4354C96.9545 12.599 96.717 11.9245 96.2684 11.4389C95.8198 10.9263 95.2392 10.6834 94.5531 10.6834C93.867 10.6834 93.2864 10.8723 92.8378 11.1961C92.3892 11.5468 92.1517 12.0324 92.1517 12.626V16.5381C92.1517 17.1316 92.3892 17.6173 92.8378 17.968C93.2864 18.2918 93.867 18.4806 94.5531 18.4806ZM111.68 21.2056C111.046 21.2056 110.492 20.9898 110.044 20.5581C109.621 20.1534 109.331 19.5868 109.226 18.8853H109.067C108.882 19.7487 108.46 20.3962 107.774 20.8279C107.088 21.2866 106.27 21.5024 105.294 21.5024C103.974 21.5024 102.998 21.1517 102.312 20.4502C101.599 19.7487 101.256 18.8044 101.256 17.6443C101.256 16.2683 101.757 15.2431 102.76 14.5416C103.763 13.8671 105.109 13.5433 106.824 13.5433H108.856V12.7069C108.856 12.0594 108.698 11.5468 108.355 11.1691C108.038 10.7914 107.484 10.6025 106.719 10.6025C105.98 10.6025 105.425 10.7644 104.977 11.0881C104.555 11.4119 104.212 11.7626 103.921 12.1673L101.757 10.1978C102.285 9.41539 102.945 8.79486 103.737 8.3362C104.528 7.87754 105.61 7.6617 106.982 7.6617C108.83 7.6617 110.202 8.0664 111.126 8.90278C112.049 9.71217 112.498 10.9263 112.498 12.4911V18.2918H113.712V21.2056H111.68ZM106.639 18.9123C107.246 18.9123 107.774 18.7774 108.196 18.5076C108.645 18.2378 108.856 17.8061 108.856 17.2126V15.6478H107.088C105.663 15.6478 104.95 16.1334 104.95 17.1316V17.5094C104.95 17.995 105.082 18.3457 105.373 18.5616C105.689 18.7774 106.085 18.9123 106.639 18.9123ZM122.473 7.95848H125.877L120.89 23.2291C120.573 24.2543 120.098 25.0098 119.517 25.4954C118.91 25.9811 118.04 26.2239 116.931 26.2239H114.662V23.337H117.09L117.538 21.8801L112.999 7.95848H116.641L118.541 14.1369L119.465 17.968H119.623L120.573 14.1369L122.473 7.95848Z" fill="white"/>
<path d="M3.50693 16.2419L7.33337 13.0043L6.96392 12.8694C6.80558 12.8155 4.66805 12.06 4.66805 12.033C-0.820915 10.6031 -0.900082 1.72671 5.59168 0H25.067C31.4532 0.593558 33.0365 6.82591 27.8378 11.5474C26.3336 12.9234 24.5919 14.1914 23.4044 15.1357C26.4128 16.2149 30.7143 16.8085 30.3976 22.3394C30.2393 25.3071 28.4712 27.2497 26.3336 27.6274L7.33337 27.6544C0.261046 28.5717 -2.98483 21.2871 3.50693 16.2419ZM10.2362 10.5222L18.628 3.31853H5.61807C1.13189 7.33853 6.46252 10.2254 10.2362 10.5222ZM20.4224 17.5909C17.546 19.9381 14.4321 22.4743 11.9515 24.4438L26.0697 24.2549C28.2601 23.8233 28.3128 20.4777 26.7823 19.8842C24.6975 19.0748 22.5336 18.3463 20.4224 17.5909ZM7.38615 24.2819L26.36 7.55437C28.4448 5.55786 24.8822 1.94255 22.6655 3.88511L4.11388 19.7493C1.39578 22.7171 5.16945 26.0896 7.38615 24.2819Z" fill="white"/>
</svg>
